<svg width="25" height="25" viewBox="0 0 25 25" fill="none" xmlns="http://www.w3.org/2000/svg">
<path d="M9.99994 10L14.9999 10L14.9999 15L9.99994 15L9.99994 10Z" fill="#C94960"/>
<path d="M15 0L20 1.06e-06V5L15 5L15 0Z" fill="#C94960"/>
<path d="M4.99994 20L9.99994 20L9.99994 25L4.99994 25L4.99994 20Z" fill="#C94960"/>
<path d="M4.99994 0L9.99994 1.06e-06L9.99994 5L4.99994 5L4.99994 0Z" fill="#C94960"/>
<path d="M14.9999 20L19.9999 20V25L14.9999 25L14.9999 20Z" fill="#C94960"/>
<path d="M20 5L24.9999 5L24.9999 20L19.9999 20L20 5Z" fill="#C94960"/>
<path d="M-5.95384e-05 5L4.99994 5L4.99994 20L-6.10352e-05 20L-5.95384e-05 5Z" fill="#C94960"/>
</svg>
